<svg id="e36d0091-3107-4bb0-b18b-d813293977a4" data-name="Capa 1" xmlns="http://www.w3.org/2000/svg" viewBox="0 0 916.66 889.42"><defs><style>.a69f8886-c3bd-4b6b-b284-e454a9a8a921{fill:#fff;}.a9d18715-188e-4cb4-9f8b-e58afef1afdf{fill:none;stroke:#fff;stroke-miterlimit:10;stroke-width:4px;}</style></defs><polygon class="a69f8886-c3bd-4b6b-b284-e454a9a8a921" points="273.67 346.82 273.67 441.53 273.67 536.23 251.75 536.23 229.83 536.23 229.83 498.62 229.83 461.01 197.1 461.01 164.37 461.01 164.37 498.62 164.37 536.23 142.45 536.23 120.53 536.23 120.53 441.53 120.53 346.82 142.45 346.82 164.37 346.82 164.37 385.11 164.37 423.4 197.1 423.4 229.83 423.4 229.83 385.11 229.83 346.82 251.75 346.82 273.67 346.82"/><path class="a69f8886-c3bd-4b6b-b284-e454a9a8a921" d="M364.15,539.72c2.86.47,5.82.81,8.86,1s6.2.35,9.43.35a118.18,118.18,0,0,0,16.8-1.14,90.19,90.19,0,0,0,14.94-3.39,73.25,73.25,0,0,0,13.07-5.67A65,65,0,0,0,438.47,523a57.3,57.3,0,0,0,15.41-21.78,68.82,68.82,0,0,0,3.87-13.63A88.61,88.61,0,0,0,459,472.1V444.83L411.6,492.27Z"/><path class="a69f8886-c3bd-4b6b-b284-e454a9a8a921" d="M459,346.82v98L411.6,492.27l-47.45,47.45q-3.54-.54-6.89-1.34c-2.23-.52-4.4-1.13-6.51-1.8a72.85,72.85,0,0,1-13-5.67A64,64,0,0,1,326.58,523a56.93,56.93,0,0,1-15.32-21.78,68.79,68.79,0,0,1-3.84-13.63,89.61,89.61,0,0,1-1.28-15.47V346.82h43.58V469.4a50.33,50.33,0,0,0,.54,7.55,37.28,37.28,0,0,0,1.64,6.66,30.19,30.19,0,0,0,2.76,5.78,28.36,28.36,0,0,0,8.63,8.81,28.61,28.61,0,0,0,5.59,2.79,35.19,35.19,0,0,0,6.39,1.68,47.14,47.14,0,0,0,14.36,0A34.87,34.87,0,0,0,396,501a28.06,28.06,0,0,0,5.59-2.79,28.41,28.41,0,0,0,4.8-3.91,28,28,0,0,0,3.84-4.9,30.19,30.19,0,0,0,2.76-5.78,36.45,36.45,0,0,0,1.64-6.66,49,49,0,0,0,.55-7.55V346.82H459Z"/><path class="a69f8886-c3bd-4b6b-b284-e454a9a8a921" d="M535.33,497.27V368.54l-21.92,21.92-21.92,21.92V536.23H605.68v-39H535.33Z"/><polygon class="a69f8886-c3bd-4b6b-b284-e454a9a8a921" points="535.33 346.82 535.33 357.68 535.33 368.54 513.41 390.46 491.49 412.38 491.49 379.6 491.49 346.82 513.41 346.82 535.33 346.82"/><path class="a69f8886-c3bd-4b6b-b284-e454a9a8a921" d="M749.64,536.24,748,530.49l-1.63-5.75L744.77,519l-1.62-5.75H676L674.42,519l-1.63,5.75-1.62,5.75-1.62,5.75H623.27l16-47.36,16-47.35,16-47.35,16-47.36h44.11l16.1,47.36,16.1,47.35,16.1,47.35,16.1,47.36H749.64Zm-63.86-57.37H733.4l-5.95-21-6-21-6-21-5.95-21-6,21-5.95,21-6,21Z"/><path class="a9d18715-188e-4cb4-9f8b-e58afef1afdf" d="M867.36,444.83a407.09,407.09,0,1,1-32.09-158.94A406.9,406.9,0,0,1,867.36,444.83Z"/></svg>